<?xml version="1.0" encoding="utf-8"?>
<!-- Svg Vector Icons : http://www.onlinewebfonts.com/icon -->
<!DOCTYPE svg PUBLIC "-//W3C//DTD SVG 1.1//EN" "http://www.w3.org/Graphics/SVG/1.1/DTD/svg11.dtd">
<svg version="1.1" xmlns="http://www.w3.org/2000/svg" xmlns:xlink="http://www.w3.org/1999/xlink" x="0px" y="0px" viewBox="0 0 1000 1000" enable-background="new 0 0 1000 1000" xml:space="preserve">
<metadata> Svg Vector Icons : http://www.onlinewebfonts.com/icon </metadata>
<g><g><g><path d="M464.9,447.2c-9.2,0-16.2,2.6-21.3,7.8c-5,5.2-8.2,12.2-9.5,21.1h61.4c-0.6-9.5-3.8-16.6-9.5-21.5C480.3,449.7,473.3,447.2,464.9,447.2z"/><path d="M500,10C229.4,10,10,229.4,10,500c0,270.6,219.4,490,490,490s490-219.4,490-490C990,229.4,770.6,10,500,10z M234.2,557.6H115.8V373.5H233v32.6h-79.6v39.1H234v32h-80.6v47.3h80.8L234.2,557.6L234.2,557.6z M318.4,626.5h-38.6l26.5-66.4l-58.8-142.2H287l38.6,100.4l36.9-100.4h37.9l-55.1,138.9L318.4,626.5z M532.4,499.5h-99.2c0.6,13.7,5.3,23.2,14.3,28.7c5.4,3.4,12,5.1,19.6,5.1c8.1,0,14.7-2.1,19.8-6.3c2.7-2.2,5.2-5.4,7.3-9.3h36.3c-1,8.1-5.4,16.3-13.2,24.6c-12.2,13.2-29.3,19.8-51.2,19.8c-18.1,0-34.1-5.6-48-16.8c-13.9-11.2-20.8-29.3-20.8-54.5c0-23.6,6.3-41.7,18.8-54.3c12.5-12.6,28.7-18.9,48.7-18.9c11.8,0,22.5,2.1,32,6.4c9.5,4.3,17.3,11,23.5,20.1c5.6,8.1,9.2,17.5,10.8,28.1C532.2,478.8,532.6,487.8,532.4,499.5z M671.6,557.6H553.2V373.5h117.2v32.6h-79.6v39.1h80.6v32h-80.6v47.3h80.7L671.6,557.6L671.6,557.6z M847.5,559.1v-86.7c0-5.2-0.8-9.4-2.5-12.7c-3.2-6.3-9-9.5-17.5-9.5c-9.8,0-16.6,4.1-20.4,12.2c-1.9,4.3-2.9,9.5-2.9,15.6v81.1h-35.9V478c0-8.1-0.8-14-2.5-17.6c-3-6.6-8.9-9.9-17.6-9.9c-10.2,0-17,3.3-20.5,9.9c-1.9,3.8-2.9,9.3-2.9,16.7v81.9h-36.1V423.2h34.6v19.9c4.4-7.1,8.6-12.1,12.5-15.1c6.9-5.3,15.9-8,26.9-8c10.4,0,18.8,2.3,25.3,6.9c5.2,4.2,9.1,9.7,11.7,16.4c4.7-8,10.5-13.9,17.4-17.6c7.3-3.7,15.5-5.6,24.5-5.6c6,0,11.9,1.2,17.7,3.5c5.8,2.3,11.1,6.4,15.9,12.2c3.8,4.8,6.4,10.6,7.7,17.5c0.9,4.6,1.3,11.3,1.3,20.1l-0.3,85.8H847.5L847.5,559.1z"/></g></g><g></g><g></g><g></g><g></g><g></g><g></g><g></g><g></g><g></g><g></g><g></g><g></g><g></g><g></g><g></g></g>
</svg>