<?xml version="1.0"?>
<svg xmlns="http://www.w3.org/2000/svg" xmlns:xlink="http://www.w3.org/1999/xlink" version="1.1" viewBox="0 0 192 192" width="100px" height="100px"><g fill="none" fill-rule="nonzero" stroke="none" stroke-width="1" stroke-linecap="butt" stroke-linejoin="miter" stroke-miterlimit="10" stroke-dasharray="" stroke-dashoffset="0" font-family="none" font-weight="none" font-size="none" text-anchor="none" style="mix-blend-mode: normal"><path d="M0,192v-192h192v192z" fill="none"/><g fill="#3498db"><g id="surface1"><path d="M114.69,11.55c-0.405,0.06 -0.81,0.18 -1.2,0.36c-3.3,1.635 -7.05,6.495 -7.77,7.455c-0.045,0.06 -0.09,0.12 -0.12,0.18c-3.705,5.55 -5.685,12.045 -5.76,18.81c-0.045,5.07 0.945,10.095 2.955,14.94c4.68,11.235 14.4,20.535 25.965,24.885c0.39,0.135 0.765,0.27 1.44,0.51c0.06,0.03 0.63,0.21 0.72,0.225l0.42,0.15c0.6,0.195 1.215,0.39 1.815,0.51c3.045,0.615 6.015,0.96 8.805,1.05c0.48,0 0.96,0.015 1.44,0.015c21.045,0 29.205,-14.85 31.92,-19.8c0.27,-0.48 0.465,-0.87 0.645,-1.11c0,-0.015 0,-0.015 0.015,-0.03c1.185,-1.755 0.735,-4.14 -1.02,-5.34c-1.74,-1.185 -4.125,-0.735 -5.325,1.02h-0.015c-5.61,8.265 -15.21,10.77 -28.515,7.47c-0.99,-0.24 -2.07,-0.615 -3.03,-0.975c-1.26,-0.45 -2.52,-0.975 -3.69,-1.545c-2.325,-1.155 -4.515,-2.535 -6.495,-4.065c-11.7,-9.075 -16.275,-27.96 -9.435,-38.865c0.915,-1.455 0.75,-3.345 -0.405,-4.62c-0.87,-0.96 -2.13,-1.395 -3.36,-1.23zM80.67,19.2c-0.87,-0.015 -1.755,0.27 -2.475,0.87c-5.805,4.725 -11.745,12.465 -12,12.78c-0.03,0.06 -0.06,0.105 -0.105,0.165c-10.5,15.285 -11.295,37.035 -2.01,55.41c1.455,2.91 3.105,5.685 4.86,8.235l0.525,0.75c1.485,2.175 3.15,4.635 5.28,6.555c0.735,0.84 1.53,1.65 2.31,2.43l0.375,0.39l0.315,0.315c0.795,0.765 1.605,1.545 2.445,2.295h0.015c0.06,0.09 0.15,0.15 0.225,0.225c0.945,0.84 1.905,1.635 3.18,2.64l0.345,0.255c0.99,0.795 1.995,1.545 3.03,2.28c0.105,0.075 0.21,0.15 0.315,0.225c0.36,0.24 0.72,0.465 1.08,0.72l0.36,0.24l0.42,0.27c0.765,0.51 1.515,0.975 2.58,1.59c0.69,0.42 1.425,0.84 1.905,1.08c0.21,0.12 0.435,0.24 0.96,0.525l1.17,0.615c0.06,0.03 0.33,0.15 0.39,0.18c0.765,0.39 1.56,0.765 2.355,1.125l1.215,0.54c0.795,0.345 1.605,0.675 2.595,1.05l0.45,0.165c0.03,0.03 0.405,0.165 0.435,0.18c0.72,0.255 1.455,0.51 2.19,0.75l1.68,0.555c0.84,0.285 1.815,0.615 2.88,0.795c5.235,0.87 10.32,1.32 15.135,1.32c0.57,0 1.14,-0.015 1.695,-0.015c42.39,-0.93 53.415,-36.945 53.52,-37.305c0.525,-1.815 -0.33,-3.75 -2.04,-4.56c-1.71,-0.81 -3.75,-0.24 -4.815,1.32c-10.74,15.69 -31.05,22.32 -51.735,16.86c-0.96,-0.24 -1.89,-0.51 -3.045,-0.885c-0.195,-0.06 -0.36,-0.12 -0.675,-0.24c-0.675,-0.21 -1.335,-0.435 -2.085,-0.72l-1.065,-0.405c-0.615,-0.24 -1.23,-0.48 -1.98,-0.81l-0.495,-0.225c-0.915,-0.39 -1.8,-0.825 -2.595,-1.215l-2.19,-1.14c-0.495,-0.24 -0.93,-0.51 -1.605,-0.915l-0.375,-0.21l-0.375,-0.225c-0.555,-0.33 -1.11,-0.675 -1.62,-1.035l-0.36,-0.225c-0.03,-0.015 -0.33,-0.225 -0.36,-0.255c-0.45,-0.285 -0.885,-0.57 -1.305,-0.84c-0.93,-0.66 -1.845,-1.35 -2.91,-2.19l-0.42,-0.345c-9.9,-7.905 -17.22,-18.465 -20.655,-29.79c-3.195,-10.395 -0.825,-24 6.345,-36.39c0.93,-1.605 0.585,-3.645 -0.84,-4.845c-0.705,-0.6 -1.575,-0.915 -2.445,-0.915zM38.415,30.72c-0.915,0 -1.845,0.33 -2.58,0.99c-7.335,6.585 -12.825,15.12 -13.425,16.095c-15.69,22.845 -12.66,58.35 -1.89,80.055c0.21,0.45 0.435,0.885 0.66,1.32l0.15,0.24c0.195,0.435 0.42,0.885 0.495,0.975c0.12,0.285 0.3,0.6 0.375,0.69c0.18,0.375 0.36,0.705 0.69,1.275l1.23,2.115c0.18,0.285 0.36,0.585 0.42,0.69c0.24,0.39 0.495,0.795 0.75,1.2l0.6,0.96c0.18,0.285 0.36,0.54 0.48,0.69c0.6,0.93 1.2,1.86 1.86,2.745c0.03,0.045 0.06,0.075 0.09,0.105l0.24,0.33c0.54,0.78 1.095,1.53 1.59,2.145l2.19,2.775c0.03,0.03 0.27,0.315 0.285,0.345l0.315,0.36c0.66,0.81 1.365,1.62 2.07,2.4c0.105,0.12 0.21,0.225 0.315,0.345c0.675,0.735 1.365,1.47 2.085,2.235l0.69,0.66c0.57,0.6 1.14,1.185 1.74,1.74c0,0.015 0.285,0.285 0.285,0.285l0.6,0.555c0.72,0.69 1.47,1.38 2.04,1.86c0.03,0.045 0.57,0.51 0.615,0.54c0.705,0.63 1.41,1.23 2.13,1.815l3.675,2.91c0.615,0.45 1.245,0.9 1.965,1.425c0.24,0.18 0.495,0.36 0.75,0.525c0.105,0.09 0.225,0.18 0.3,0.225l2.76,1.845c1.005,0.66 2.01,1.275 3.24,2.01l0.66,0.375c0.765,0.45 1.545,0.9 2.28,1.29c0.435,0.24 0.87,0.45 1.245,0.645c0.525,0.285 1.095,0.6 1.965,1.02c0.075,0.045 0.69,0.345 0.765,0.375c0.87,0.435 1.755,0.84 2.865,1.335c0,0.015 0.36,0.18 0.36,0.18c1.02,0.435 2.01,0.855 3.315,1.38c0.21,0.09 0.42,0.165 0.465,0.18c0.93,0.36 1.905,0.72 2.7,1.005c0.075,0.03 0.48,0.195 0.555,0.225c1.065,0.36 2.115,0.705 3.465,1.125c0.225,0.075 0.465,0.15 0.495,0.15l0.765,0.24c0.93,0.285 1.86,0.585 2.865,0.78c7.14,1.305 14.115,1.98 20.715,1.98h0.015c55.005,0 72.525,-44.265 72.705,-44.715c0.675,-1.785 -0.06,-3.795 -1.74,-4.725c-1.65,-0.915 -3.75,-0.48 -4.92,1.035c-14.115,18.585 -40.74,25.485 -71.22,18.48c-0.735,-0.18 -1.485,-0.39 -2.22,-0.615l-1.44,-0.435c-0.975,-0.3 -1.95,-0.63 -2.895,-0.96c-0.015,0 -0.45,-0.165 -0.45,-0.165c-0.84,-0.285 -1.68,-0.615 -2.415,-0.9l-0.84,-0.33c-0.93,-0.375 -1.86,-0.765 -2.76,-1.17l-0.525,-0.225c-0.81,-0.375 -1.59,-0.735 -2.37,-1.125c-0.06,-0.03 -0.675,-0.33 -0.735,-0.345c-0.54,-0.27 -1.08,-0.555 -1.77,-0.93l-3.135,-1.68c-0.315,-0.21 -0.645,-0.405 -0.96,-0.57c-0.945,-0.585 -1.92,-1.17 -2.88,-1.785c-0.225,-0.135 -0.42,-0.285 -0.795,-0.54c-0.66,-0.42 -1.305,-0.855 -2.25,-1.515l-0.375,-0.27c-0.645,-0.45 -1.275,-0.93 -1.8,-1.32c-0.33,-0.24 -0.66,-0.51 -1.2,-0.915c-0.48,-0.375 -0.96,-0.735 -1.41,-1.095l-0.84,-0.69c-0.705,-0.57 -1.365,-1.17 -2.055,-1.755c-0.09,-0.09 -0.165,-0.15 -0.27,-0.225c-0.765,-0.705 -1.545,-1.41 -2.475,-2.295l-2.715,-2.7c-0.66,-0.675 -1.32,-1.365 -2.07,-2.19c-0.69,-0.765 -1.35,-1.53 -2.235,-2.58l-1.62,-1.98c-0.195,-0.285 -0.405,-0.57 -0.66,-0.87c-0.555,-0.75 -1.11,-1.485 -1.665,-2.265c-14.94,-20.58 -18.84,-63.54 -7.2,-79.275c1.17,-1.575 0.96,-3.795 -0.51,-5.13c-0.72,-0.66 -1.65,-0.99 -2.565,-0.99z"/></g></g></g></svg>
