<?xml version="1.0" encoding="iso-8859-1"?>
<!-- Generator: Adobe Illustrator 19.0.0, SVG Export Plug-In . SVG Version: 6.00 Build 0)  -->
<svg xmlns="http://www.w3.org/2000/svg" xmlns:xlink="http://www.w3.org/1999/xlink" version="1.1" id="Capa_1" x="0px" y="0px" viewBox="0 0 511.997 511.997" style="enable-background:new 0 0 511.997 511.997;" xml:space="preserve" width="512" height="512">
<g>
	<g>
		<path style="fill:#DAD8DB;" d="M39.808,24.985c24.278,8.666,59.371,24.199,94.973,50.348c12.708,9.333,12.888,28.234,0.589,38.099    c-22.97,18.423-57.965,50.949-86.603,96.685C18.985,145.257,9.439,83.652,7.572,48.808C6.649,31.593,23.571,19.189,39.808,24.985z    "/>
		<path style="fill:#C8C5C9;" d="M67.909,66.942c-11.444-4.205-23.271,2.07-27.254,12.706l31.001,98.023    c22.846-28.985,46.612-50.524,63.713-64.241c2.818-2.259,4.898-5.027,6.405-8.011C113.851,86.038,87.08,73.986,67.909,66.942z"/>
		<path style="fill:#ECEAEC;" d="M464.384,279.964h25.307c3.295,0,5.652-3.304,4.541-6.407    c-28.611-79.922-85.151-134.135-117.612-160.162c-12.282-9.848-12.045-28.752,0.644-38.071    c15.359-11.28,30.565-20.48,44.907-28.11l-1.873,0.832c-39.678,11.769-113.801,31.524-164.3,31.529    c-50.499-0.005-124.621-19.76-164.3-31.529l-1.873-0.832c14.342,7.63,29.548,16.829,44.907,28.11    c12.689,9.318,12.925,28.223,0.644,38.071c-32.46,26.027-89.001,80.239-117.612,160.162c-1.111,3.103,1.246,6.407,4.541,6.407    h25.307C28.821,330.076,14.925,380.187,9.749,399.695c-0.975,3.673,2.522,6.939,6.127,5.737l39.753-13.251    c-11.117,27.792-18.379,51.729-21.786,63.793c-1.018,3.601,2.336,6.879,5.928,5.828c15.428-4.514,49.955-13.513,79.983-13.513    l-5.969,23.872c-0.9,3.602,2.476,6.807,6.026,5.722l67.323-20.577l2.906,1.314c16.145,18.241,39.663,29.806,65.935,29.818    l0.005,0.002l0.004-0.001c0.012,0,0.022,0.001,0.033,0.001c26.304,0,49.85-11.581,66.005-29.849    c1.791-0.81,2.841-1.285,2.841-1.285l67.323,20.577c3.551,1.085,6.927-2.12,6.026-5.722l-5.969-23.872    c30.028,0,64.555,8.999,79.983,13.513c3.592,1.05,6.945-2.227,5.928-5.828c-3.407-12.064-10.669-36.001-21.786-63.793    l39.753,13.251c3.605,1.202,7.102-2.065,6.127-5.737C497.072,380.187,483.176,330.076,464.384,279.964z"/>
		<path style="fill:#DAD8DB;" d="M472.226,24.985c-24.278,8.666-59.371,24.199-94.973,50.348    c-12.708,9.333-12.888,28.234-0.589,38.099c22.97,18.423,57.965,50.949,86.603,96.685c29.782-64.86,39.328-126.464,41.195-161.308    C505.385,31.593,488.463,19.189,472.226,24.985z"/>
		<circle style="fill:#4B3F4E;" cx="159.831" cy="247.902" r="16.031"/>
		<circle style="fill:#4B3F4E;" cx="352.204" cy="247.902" r="16.031"/>
		<path style="fill:#5D5360;" d="M260.025,416.228h-8.016c-15.494,0-28.054-12.56-28.054-28.054v0    c0-15.494,12.56-28.054,28.054-28.054h8.016c15.494,0,28.054,12.56,28.054,28.054v0    C288.079,403.668,275.519,416.228,260.025,416.228z"/>
		<path style="fill:#4B3F4E;" d="M268.041,400.271c-15.494,0-28.054-12.56-28.054-28.054v-9.294    c-9.452,4.513-16.031,14.079-16.031,25.251c0,15.494,12.56,28.054,28.054,28.054h8.016c11.142,0,20.683-6.546,25.211-15.957    H268.041z"/>
		<path style="fill:#DAD8DB;" d="M175.862,424.318C35.59,420.31,59.648,193.798,59.637,193.81    c-9.018,9.413-31.002,49.383-41.872,79.748c-1.111,3.103,1.246,6.407,4.542,6.407h25.306    C28.822,330.076,14.925,380.187,9.748,399.695c-0.974,3.673,2.523,6.939,6.127,5.737l39.753-13.251    c-11.117,27.792-18.379,51.729-21.787,63.793c-1.017,3.601,2.336,6.879,5.928,5.828c15.428-4.514,49.955-13.513,79.983-13.513    l-5.968,23.872c-0.901,3.602,2.475,6.807,6.026,5.722l66.49-20.323C175.862,424.318,175.862,424.318,175.862,424.318z"/>
		<path style="fill:#DAD8DB;" d="M280.064,472.411c-48.696,0-88.171-39.475-88.171-88.171v-84.437    c-14.871,15.784-24.047,36.993-24.047,60.39v40.078c0,48.695,39.475,88.171,88.171,88.171c23.27,0,44.371-9.082,60.128-23.809    C305.123,469.589,292.934,472.411,280.064,472.411z"/>
		<path style="fill:#C8C5C9;" d="M444.126,66.942c11.444-4.205,23.271,2.07,27.254,12.706l-31.001,98.023    c-22.846-28.985-46.612-50.524-63.713-64.241c-2.818-2.259-4.898-5.027-6.405-8.011C398.183,86.038,424.954,73.986,444.126,66.942    z"/>
	</g>
	<g>
		<path d="M475.142,287.501h21.304c2.411,0,4.675-1.159,6.084-3.115c1.41-1.956,1.793-4.47,1.031-6.757    c-8.352-25.055-19.434-47.725-31.77-67.929c29.522-64.496,38.142-122.801,40.16-160.454c0.564-10.533-4.138-20.579-12.579-26.873    c-8.522-6.354-19.612-8.004-29.668-4.416c-13.887,4.957-31.924,12.382-51.797,23.011    c-39.365,11.667-112.479,31.139-161.909,31.144C206.569,72.108,133.455,52.636,94.09,40.97    C74.217,30.34,56.179,22.915,42.293,17.958c-10.056-3.589-21.146-1.938-29.668,4.416C4.183,28.668-0.519,38.714,0.046,49.247    c2.017,37.639,10.64,95.913,40.136,160.381C26.874,231.44,16.26,254.157,8.436,277.63c-0.762,2.287-0.379,4.801,1.031,6.757    c1.41,1.956,3.674,3.115,6.084,3.115h21.304C14.995,347.821,0.412,405.82,0.26,406.431c-0.664,2.655,0.171,5.462,2.18,7.322    c2.008,1.86,4.871,2.478,7.467,1.612l32.996-10.999c-12.193,32.769-18.307,57.014-18.597,58.173    c-0.664,2.655,0.171,5.462,2.18,7.322c2.008,1.86,4.871,2.479,7.467,1.612c0.431-0.144,39.937-13.187,76.118-15.345l-5.61,22.442    c-0.656,2.623,0.151,5.396,2.111,7.257c1.414,1.343,3.27,2.062,5.165,2.062c0.732,0,1.471-0.107,2.192-0.328l71.547-21.868    c17.215,18.569,41.801,30.211,69.058,30.211h2.964c27.253,0,51.835-11.639,69.05-30.203l71.518,21.859    c0.721,0.22,1.459,0.328,2.192,0.328c1.895,0,3.751-0.719,5.165-2.062c1.96-1.862,2.767-4.635,2.111-7.257l-5.61-22.441    c36.14,2.161,75.688,15.201,76.12,15.345c2.597,0.865,5.459,0.247,7.466-1.614c2.008-1.86,2.844-4.666,2.18-7.32    c-0.29-1.159-6.403-25.404-18.597-58.173l32.996,10.999c2.597,0.866,5.459,0.248,7.467-1.612c2.009-1.86,2.844-4.667,2.18-7.322    C511.585,405.82,497.003,347.821,475.142,287.501z M474.748,32.085c1.903-0.679,3.844-1.014,5.76-1.014    c3.518,0,6.95,1.129,9.898,3.328c4.473,3.335,6.867,8.455,6.567,14.045c-1.856,34.629-9.503,87.37-34.898,146.194    c-4.331-6.366-8.761-12.451-13.234-18.252c15.606-35.979,26.166-73.565,31.371-111.795c0.559-4.104-2.316-7.884-6.42-8.443    c-4.104-0.555-7.884,2.316-8.443,6.42c-4.669,34.3-13.814,68.072-27.19,100.568c-20.816-24.716-41.595-43.322-56.801-55.519    c-4.099-3.288-6.386-8.182-6.274-13.428c0.109-5.114,2.518-9.77,6.61-12.775C416.97,55.504,451.768,40.288,474.748,32.085z     M257.499,480.905h-2.964c-26.226,0-49.503-12.825-63.923-32.522c8.877,4.725,19.165,7.445,30.136,7.445    c12.699,0,25.014-3.7,35.269-10.514c10.254,6.813,22.57,10.514,35.268,10.514c10.971,0,21.26-2.72,30.137-7.445    C307.003,468.08,283.726,480.905,257.499,480.905z M260.025,408.766h-8.016c-11.333,0-20.554-9.221-20.554-20.555    c0-11.333,9.221-20.554,20.554-20.554h8.016c11.333,0,20.554,9.221,20.554,20.554    C280.579,399.545,271.359,408.766,260.025,408.766z M458.74,385.103c-2.772-0.925-5.825-0.155-7.829,1.97    c-2.003,2.125-2.591,5.219-1.506,7.931c9.629,24.073,16.371,45.372,20.147,58.255c-17.399-4.866-49.006-12.432-77.308-12.432    c-2.31,0-4.49,1.064-5.912,2.884s-1.925,4.194-1.364,6.435l4.798,19.193l-53.329-16.3c9.639-14.775,15.25-32.405,15.25-51.324    v-45.799c0-24.351-9.277-47.458-26.124-65.066c-2.864-2.993-7.611-3.099-10.604-0.234c-2.993,2.863-3.098,7.611-0.234,10.604    c14.162,14.802,21.961,34.227,21.961,54.696v44.317c0,22.383-20.368,40.593-45.403,40.593c-10.082,0-19.81-3.025-27.768-8.563    v-8.673c17.971-1.76,32.062-16.955,32.062-35.381c0-19.604-15.95-35.554-35.554-35.554h-8.016    c-19.604,0-35.554,15.95-35.554,35.554c0,18.427,14.091,33.621,32.062,35.381v8.673c-7.958,5.537-17.686,8.563-27.769,8.563    c-25.035,0-45.402-18.21-45.402-40.593v-44.317c0-20.471,7.801-39.897,21.965-54.7c2.864-2.993,2.759-7.74-0.234-10.604    s-7.74-2.759-10.604,0.234c-16.848,17.608-26.127,40.717-26.127,65.07v45.799c0,18.915,5.609,36.542,15.244,51.314l-53.36,16.309    l4.798-19.193c0.561-2.24,0.057-4.614-1.364-6.435s-3.602-2.884-5.912-2.884c-28.302,0-59.908,7.566-77.308,12.432    c3.776-12.884,10.518-34.182,20.147-58.255c1.085-2.711,0.497-5.806-1.506-7.931c-2.004-2.125-5.06-2.895-7.829-1.97    L18.319,396.75c5.969-22.065,19.144-68.321,36.317-114.115c0.864-2.303,0.543-4.883-0.858-6.905    c-1.401-2.022-3.705-3.228-6.165-3.228H26.147c15.38-41.351,40.001-80.197,73.295-115.612c2.837-3.018,2.691-7.765-0.327-10.602    c-3.019-2.837-7.765-2.69-10.602,0.327c-5.093,5.418-9.985,10.917-14.688,16.49C60.457,130.618,51.317,96.857,46.649,62.568    c-0.559-4.104-4.339-6.977-8.443-6.42c-4.104,0.559-6.979,4.339-6.42,8.443c5.202,38.212,15.755,75.781,31.349,111.746    c-4.632,5.997-9.042,12.075-13.233,18.231C24.531,135.772,16.879,83.06,15.024,48.444c-0.3-5.59,2.094-10.71,6.567-14.045    c4.556-3.397,10.262-4.24,15.659-2.313c22.979,8.203,57.777,23.418,93.055,49.329c4.092,3.005,6.501,7.662,6.61,12.775    c0.111,5.246-2.175,10.141-6.274,13.428c-5.729,4.594-11.474,9.476-17.076,14.508c-3.082,2.768-3.336,7.51-0.568,10.591    c2.769,3.082,7.511,3.335,10.591,0.568c5.396-4.847,10.926-9.546,16.438-13.966c7.765-6.228,12.098-15.503,11.886-25.448    c-0.208-9.812-4.848-18.759-12.728-24.546c-0.347-0.255-0.694-0.502-1.041-0.755c38.078,9.52,83.25,18.536,117.825,18.544    c0.004,0,0.008,0,0.012,0c0.013,0,0.024,0,0.037,0c0.004,0,0.008,0,0.012,0c34.576-0.008,79.747-9.024,117.825-18.544    c-0.347,0.253-0.694,0.5-1.041,0.755c-7.88,5.788-12.519,14.734-12.728,24.546c-0.211,9.945,4.121,19.22,11.886,25.448    c30.811,24.712,85.396,76.728,113.875,153.183h-21.463c-2.46,0-4.763,1.206-6.165,3.228c-1.401,2.022-1.722,4.602-0.858,6.905    c17.173,45.794,30.348,92.05,36.317,114.115L458.74,385.103z"/>
		<path d="M159.831,224.408c-12.975,0-23.531,10.556-23.531,23.531c0,12.975,10.556,23.531,23.531,23.531    s23.531-10.556,23.531-23.531C183.362,234.964,172.806,224.408,159.831,224.408z M159.831,256.47    c-4.704,0-8.531-3.827-8.531-8.531s3.827-8.531,8.531-8.531s8.531,3.827,8.531,8.531S164.535,256.47,159.831,256.47z"/>
		<path d="M352.204,224.408c-12.975,0-23.531,10.556-23.531,23.531c0,12.975,10.556,23.531,23.531,23.531    s23.531-10.556,23.531-23.531C375.735,234.964,365.179,224.408,352.204,224.408z M352.204,256.47    c-4.704,0-8.531-3.827-8.531-8.531s3.827-8.531,8.531-8.531s8.531,3.827,8.531,8.531S356.908,256.47,352.204,256.47z"/>
	</g>
</g>















</svg>
